# xmcd
#
# Track frame offsets:
#	150
#	15193
#	28056
#	46587
#	60572
#	77880
#	92849
#	113450
#	132255
#	152680
#	171800
#	189900
#	206191
#	219085
#	232157
#	246846
#	264379
#	279493
#	292969
#
# Disc length: 4021 seconds
#
# Revision: 1
# Processed by: cddbd v1.5.2PL0 Copyright (c) Steve Scherf et al.
# Submitted via: audiograbber 1.83.01
#
DISCID=f90fb313
DTITLE=Various Artist - CDX 066
DYEAR=1994
DGENRE=Country
TTITLE0=Hank Flamingo - Baby It's You
TTITLE1=Paul Hale - Born To Roam
TTITLE2=Steve Wariner - Drivin' And Cryin'
TTITLE3=Kieran Kane - I'm Here To Love You
TTITLE4=Shenandoah - I Want To Be Loved Like That
TTITLE5=Matthews, Wright and King - One Of These Days [Edited]
TTITLE6=Kevin Montgomery - Red-Blooded American Boy
TTITLE7=Hal Ketchum - Someplace Far Away (Careful What You're Dreamin')
TTITLE8=Evangeline - Still Loving You
TTITLE9=Mark O'Connor - The Devil Comes Back To Georgia
TTITLE10=Trisha Yearwood - The Song Remembers When
TTITLE11=Darryl and Don Ellis - Walk On Out Of My Mind
TTITLE12=Faith Hill - Wild One
TTITLE13=Shania Twain - You Lay A Whole Lot Of Love On Me
TTITLE14=Ruthann Rae - Do-Si-Do
TTITLE15=Lori Smith - Homeless Heart
TTITLE16=Peggy Forman - How High Will That Bird Fly
TTITLE17=Reddmann - Madam Adam
TTITLE18=Radney Foster - CDXtra - Station Liners
EXTD=
EXTT0=
EXTT1=
EXTT2=
EXTT3=
EXTT4=
EXTT5=
EXTT6=
EXTT7=
EXTT8=
EXTT9=
EXTT10=
EXTT11=
EXTT12=
EXTT13=
EXTT14=
EXTT15=
EXTT16=
EXTT17=
EXTT18=
PLAYORDER=
